<svg width="316" height="58" viewBox="0 0 316 58" fill="none" xmlns="http://www.w3.org/2000/svg">
<g clip-path="url(#clip0_27_2)">
<path d="M2.34375 23.9688V1.65625H12.5C17.0625 1.65625 19.3438 3.65104 19.3438 7.64062C19.3438 10.3385 17.5677 12.5729 14.0156 14.3438L21.0938 24H15.875L9.07812 14.2656V12.375C13.0365 11.6979 15.0156 10.1615 15.0156 7.76562C15.0156 6.11979 14.0885 5.29688 12.2344 5.29688H6.5625V23.9688H2.34375ZM33.2938 24V1.65625H37.5906L45.1688 18.6094L52.5906 1.65625H56.7313V24H52.9031V8.4375L46.8406 24H43.3094L37.1219 8.4375V24H33.2938ZM65.3156 24H61.0656L70.55 1.65625H75.0031L84.6906 24H80.2375L77.6906 17.9062H70.2687L71.6906 14.3125H76.1906L72.675 5.92188L65.3156 24ZM89.025 23.9688V1.65625H99.1813C103.744 1.65625 106.025 3.65104 106.025 7.64062C106.025 10.3385 104.249 12.5729 100.697 14.3438L107.775 24H102.556L95.7594 14.2656V12.375C99.7177 11.6979 101.697 10.1615 101.697 7.76562C101.697 6.11979 100.77 5.29688 98.9156 5.29688H93.2438V23.9688H89.025ZM111.344 24V1.65625H121.812C126.062 1.65625 128.188 3.39062 128.188 6.85938C128.188 9.40104 126.802 11.2188 124.031 12.3125C126.99 12.8646 128.469 14.5573 128.469 17.3906C128.469 21.7969 126.141 24 121.484 24H111.344ZM121.312 20.4062C123.146 20.4062 124.062 19.4688 124.062 17.5938C124.062 15.2708 122.693 14.1094 119.953 14.1094H118.703V11.4375C122.141 10.8646 123.859 9.42708 123.859 7.125C123.859 5.875 123.089 5.25 121.547 5.25H115.484V20.4062H121.312ZM137.741 1.65625V20.4062H146.616V24H133.6V1.65625H137.741ZM167.434 1.65625V5.21875H156.247V10.8438H166.903V14.5469H156.2V20.4062H167.653V24H152.137V1.65625H167.434ZM181.712 24V1.65625H191.712C196.275 1.65625 198.556 3.75521 198.556 7.95312C198.556 12.5052 195.436 15.2604 189.197 16.2188L188.603 12.5312C192.353 11.8542 194.228 10.3698 194.228 8.07812C194.228 6.22396 193.301 5.29688 191.447 5.29688H185.853V24H181.712ZM205.203 24H200.953L210.438 1.65625H214.891L224.578 24H220.125L217.578 17.9062H210.156L211.578 14.3125H216.078L212.562 5.92188L205.203 24ZM233.053 1.65625V20.4062H241.928V24H228.913V1.65625H233.053ZM249.747 24H245.497L254.981 1.65625H259.434L269.122 24H264.669L262.122 17.9062H254.7L256.122 14.3125H260.622L257.106 5.92188L249.747 24ZM291.269 23.0625C289.342 23.7917 287.154 24.1562 284.706 24.1562C276.685 24.1562 272.675 20.276 272.675 12.5156C272.675 5.17188 276.685 1.5 284.706 1.5C287.154 1.5 289.342 1.86458 291.269 2.59375V6.34375C289.342 5.51042 287.258 5.09375 285.019 5.09375C279.654 5.09375 276.972 7.56771 276.972 12.5156C276.972 17.8802 279.654 20.5625 285.019 20.5625C287.258 20.5625 289.342 20.1458 291.269 19.3125V23.0625ZM312.072 1.65625V5.21875H300.884V10.8438H311.541V14.5469H300.837V20.4062H312.291V24H296.775V1.65625H312.072Z" fill="#FF6B00"/>
<path d="M12.7148 36.2422V37.2969H6.97266V53H5.74219V37.2969H0.117188V36.2422H12.7148ZM19.5187 53V36.2422H20.7492V42.0312C22.1867 41.1406 23.6594 40.6953 25.1672 40.6953C28.1594 40.6953 29.6555 42.2227 29.6555 45.2773V53H28.425V44.7734C28.425 42.7891 27.3195 41.7969 25.1086 41.7969C23.632 41.7969 22.1789 42.3164 20.7492 43.3555V53H19.5187ZM43.1742 40.6953C46.5414 40.6953 48.225 42.5586 48.225 46.2852C48.225 46.5508 48.2172 46.8281 48.2016 47.1172H38.8617C38.8617 50.3359 40.5648 51.9453 43.9711 51.9453C45.3695 51.9453 46.6117 51.75 47.6977 51.3594V52.4141C46.6117 52.8047 45.3695 53 43.9711 53C39.7445 53 37.6312 50.9023 37.6312 46.707C37.6312 42.6992 39.4789 40.6953 43.1742 40.6953ZM38.8617 46.0156H47.0414C46.9945 43.1562 45.7055 41.7266 43.1742 41.7266C40.4398 41.7266 39.0023 43.1562 38.8617 46.0156ZM77.8523 36.2422V37.2969H68.0789V43.9766H77.4539V45.0312H68.0789V51.9453H78.0164V53H66.8484V36.2422H77.8523ZM89.5898 46.8477L84.8086 40.6953H86.2734L90.3164 45.8984L94.3594 40.6953H95.8242L91.0547 46.8477L95.8242 53H94.3594L90.3164 47.7969L86.2734 53H84.8086L89.5898 46.8477ZM111.816 52.6484C110.8 52.8828 109.706 53 108.534 53C104.394 53 102.323 50.8711 102.323 46.6133C102.323 42.668 104.394 40.6953 108.534 40.6953C109.706 40.6953 110.8 40.8125 111.816 41.0469V42.1016C110.722 41.8672 109.667 41.75 108.652 41.75C105.331 41.75 103.671 43.3711 103.671 46.6133C103.671 50.168 105.331 51.9453 108.652 51.9453C109.667 51.9453 110.722 51.8281 111.816 51.5938V52.6484ZM120.963 36.2422V53H119.733V36.2422H120.963ZM139.896 40.6953V53H138.994L138.853 51.4297C137.439 52.4766 135.861 53 134.119 53C131.213 53 129.759 51.4727 129.759 48.418V40.6953H130.99V48.4531C130.99 50.75 132.052 51.8984 134.177 51.8984C135.732 51.8984 137.228 51.3789 138.666 50.3398V40.6953H139.896ZM148.223 52.4141V51.2422C149.591 51.7109 150.934 51.9453 152.255 51.9453C154.841 51.9453 156.134 51.125 156.134 49.4844C156.134 48.1562 155.177 47.4922 153.262 47.4922H151.692C149.114 47.4922 147.825 46.3984 147.825 44.2109C147.825 41.8672 149.532 40.6953 152.946 40.6953C154.259 40.6953 155.598 40.8906 156.966 41.2812V42.4531C155.598 41.9844 154.259 41.75 152.946 41.75C150.352 41.75 149.055 42.5703 149.055 44.2109C149.055 45.6172 149.934 46.3203 151.692 46.3203H153.262C155.997 46.3203 157.364 47.375 157.364 49.4844C157.364 51.8281 155.661 53 152.255 53C150.934 53 149.591 52.8047 148.223 52.4141ZM166.91 36.2422V37.6484H165.445V36.2422H166.91ZM166.793 40.6953V53H165.562V40.6953H166.793ZM173.831 40.6953H175.238L179.738 51.9336L184.261 40.6953H185.667L180.429 53H178.999L173.831 40.6953ZM197.416 40.6953C200.784 40.6953 202.467 42.5586 202.467 46.2852C202.467 46.5508 202.459 46.8281 202.444 47.1172H193.104C193.104 50.3359 194.807 51.9453 198.213 51.9453C199.612 51.9453 200.854 51.75 201.94 51.3594V52.4141C200.854 52.8047 199.612 53 198.213 53C193.987 53 191.873 50.9023 191.873 46.707C191.873 42.6992 193.721 40.6953 197.416 40.6953ZM193.104 46.0156H201.284C201.237 43.1562 199.948 41.7266 197.416 41.7266C194.682 41.7266 193.245 43.1562 193.104 46.0156ZM222.321 36.2422V51.9453H232.024V53H221.091V36.2422H222.321ZM249.434 40.6953V53H248.531L248.391 51.4297C246.977 52.4766 245.398 53 243.656 53C240.75 53 239.297 51.4727 239.297 48.418V40.6953H240.527V48.4531C240.527 50.75 241.59 51.8984 243.715 51.8984C245.27 51.8984 246.766 51.3789 248.203 50.3398V40.6953H249.434ZM261.312 46.8477L256.53 40.6953H257.995L262.038 45.8984L266.081 40.6953H267.546L262.777 46.8477L267.546 53H266.081L262.038 47.7969L257.995 53H256.53L261.312 46.8477ZM284.768 40.6953V53H283.866L283.725 51.4297C282.311 52.4766 280.733 53 278.991 53C276.084 53 274.631 51.4727 274.631 48.418V40.6953H275.862V48.4531C275.862 50.75 276.924 51.8984 279.049 51.8984C280.604 51.8984 282.1 51.3789 283.538 50.3398V40.6953H284.768ZM293.33 53V40.6953H294.209L294.361 42.7344C295.595 41.375 296.97 40.6953 298.486 40.6953V41.6797C297.017 41.6797 295.709 42.3945 294.56 43.8242V53H293.33ZM304.118 40.6953H305.536L310.106 51.8047L314.606 40.6953H315.966L310.622 53.3633C309.716 55.5977 308.356 56.9922 306.544 57.5469L306.18 56.5625C307.602 56.0469 308.688 54.9219 309.438 53.1875L304.118 40.6953Z" fill="white"/>
</g>
<defs>
<clipPath id="clip0_27_2">
<rect width="316" height="58" fill="white"/>
</clipPath>
</defs>
</svg>
