<svg width="554" height="112" viewBox="0 0 554 112" fill="none" xmlns="http://www.w3.org/2000/svg">
<path d="M60.984 73V39.16H75.336C78.952 39.16 81.72 40.04 83.64 41.8C85.592 43.528 86.568 45.928 86.568 49C86.568 52.072 85.592 54.488 83.64 56.248C81.72 58.008 78.952 58.888 75.336 58.888H65.976V73H60.984ZM65.976 54.904H74.808C77.08 54.904 78.792 54.392 79.944 53.368C81.096 52.344 81.672 50.888 81.672 49C81.672 47.144 81.096 45.704 79.944 44.68C78.792 43.656 77.08 43.144 74.808 43.144H65.976V54.904ZM91.1445 56.056C91.1445 52.504 91.7685 49.432 93.0165 46.84C94.2645 44.248 96.0725 42.248 98.4405 40.84C100.841 39.432 103.689 38.728 106.985 38.728C110.249 38.728 113.065 39.432 115.432 40.84C117.801 42.248 119.625 44.248 120.905 46.84C122.217 49.432 122.873 52.488 122.873 56.008C122.873 59.56 122.217 62.648 120.905 65.272C119.625 67.864 117.785 69.88 115.385 71.32C113.017 72.728 110.217 73.432 106.985 73.432C103.689 73.432 100.857 72.728 98.4885 71.32C96.1205 69.88 94.2965 67.864 93.0165 65.272C91.7685 62.648 91.1445 59.576 91.1445 56.056ZM96.3765 56.056C96.3765 60.152 97.2725 63.352 99.0645 65.656C100.857 67.96 103.497 69.112 106.985 69.112C110.377 69.112 113.001 67.976 114.857 65.704C116.713 63.4 117.641 60.184 117.641 56.056C117.641 51.928 116.713 48.728 114.857 46.456C113.033 44.184 110.409 43.048 106.985 43.048C103.497 43.048 100.857 44.184 99.0645 46.456C97.2725 48.728 96.3765 51.928 96.3765 56.056ZM129.703 73V39.16H144.055C147.671 39.16 150.439 40.04 152.359 41.8C154.311 43.528 155.287 45.928 155.287 49C155.287 52.072 154.311 54.488 152.359 56.248C150.439 58.008 147.671 58.888 144.055 58.888H134.695V73H129.703ZM134.695 54.904H143.527C145.799 54.904 147.511 54.392 148.663 53.368C149.815 52.344 150.391 50.888 150.391 49C150.391 47.144 149.815 45.704 148.663 44.68C147.511 43.656 145.799 43.144 143.527 43.144H134.695V54.904ZM175.025 73.432C170.321 73.432 166.817 72.248 164.513 69.88C162.241 67.512 161.105 64.008 161.105 59.368V39.16H166.097V59.272C166.097 62.536 166.801 65 168.209 66.664C169.649 68.296 171.921 69.112 175.025 69.112C177.969 69.112 180.193 68.296 181.697 66.664C183.201 65 183.953 62.536 183.953 59.272V39.16H188.849V59.368C188.849 64.008 187.681 67.512 185.345 69.88C183.009 72.248 179.569 73.432 175.025 73.432ZM196.593 73V39.16H201.585V68.728H218.193V73H196.593ZM218.683 73L233.755 39.16H238.027L253.339 73H248.203L244.027 63.4L246.139 64.744H225.643L227.899 63.4L223.723 73H218.683ZM235.819 44.632L228.523 61.864L227.371 60.76H244.411L243.451 61.864L236.011 44.632H235.819ZM257.812 73V39.16H272.116C275.732 39.16 278.532 40.024 280.516 41.752C282.5 43.448 283.492 45.832 283.492 48.904C283.492 50.92 283.044 52.648 282.148 54.088C281.252 55.528 279.988 56.632 278.356 57.4C276.724 58.136 274.804 58.504 272.596 58.504L273.364 57.736H274.66C275.972 57.736 277.14 58.072 278.164 58.744C279.22 59.416 280.084 60.488 280.756 61.96L285.604 73H280.132L275.332 61.912C274.852 60.6 274.1 59.752 273.076 59.368C272.084 58.984 270.852 58.792 269.38 58.792H262.804V73H257.812ZM262.804 55H271.3C273.7 55 275.508 54.488 276.724 53.464C277.972 52.44 278.596 50.968 278.596 49.048C278.596 47.096 277.972 45.624 276.724 44.632C275.508 43.64 273.7 43.144 271.3 43.144H262.804V55ZM315.502 73.432C312.782 73.432 310.318 73.096 308.11 72.424C305.902 71.72 303.982 70.728 302.35 69.448L304.03 65.512C305.118 66.344 306.238 67.032 307.39 67.576C308.574 68.12 309.822 68.536 311.134 68.824C312.478 69.08 313.934 69.208 315.502 69.208C318.19 69.208 320.158 68.728 321.406 67.768C322.686 66.808 323.326 65.544 323.326 63.976C323.326 62.632 322.878 61.592 321.982 60.856C321.118 60.12 319.582 59.528 317.374 59.08L312.142 58.024C309.038 57.384 306.718 56.344 305.182 54.904C303.678 53.432 302.926 51.432 302.926 48.904C302.926 46.856 303.47 45.064 304.558 43.528C305.646 41.992 307.15 40.808 309.07 39.976C311.022 39.144 313.294 38.728 315.886 38.728C318.286 38.728 320.494 39.08 322.51 39.784C324.526 40.456 326.222 41.464 327.598 42.808L325.966 46.6C324.526 45.352 322.99 44.44 321.358 43.864C319.726 43.256 317.87 42.952 315.79 42.952C313.326 42.952 311.39 43.464 309.982 44.488C308.606 45.512 307.918 46.904 307.918 48.664C307.918 50.072 308.35 51.176 309.214 51.976C310.11 52.776 311.582 53.384 313.63 53.8L318.862 54.808C322.094 55.48 324.478 56.52 326.014 57.928C327.55 59.304 328.318 61.208 328.318 63.64C328.318 65.592 327.79 67.304 326.734 68.776C325.71 70.248 324.238 71.4 322.318 72.232C320.398 73.032 318.126 73.432 315.502 73.432ZM334.453 73V39.16H356.629V43.144H339.301V53.8H355.525V57.832H339.301V68.968H356.629V73H334.453ZM358.652 73L373.724 39.16H377.996L393.308 73H388.172L383.996 63.4L386.108 64.744H365.612L367.868 63.4L363.692 73H358.652ZM375.788 44.632L368.492 61.864L367.34 60.76H384.38L383.42 61.864L375.98 44.632H375.788ZM397.781 73V39.16H412.085C415.701 39.16 418.501 40.024 420.485 41.752C422.469 43.448 423.461 45.832 423.461 48.904C423.461 50.92 423.013 52.648 422.117 54.088C421.221 55.528 419.957 56.632 418.325 57.4C416.693 58.136 414.773 58.504 412.565 58.504L413.333 57.736H414.629C415.941 57.736 417.109 58.072 418.133 58.744C419.189 59.416 420.053 60.488 420.725 61.96L425.573 73H420.101L415.301 61.912C414.821 60.6 414.069 59.752 413.045 59.368C412.053 58.984 410.821 58.792 409.349 58.792H402.773V73H397.781ZM402.773 55H411.269C413.669 55 415.477 54.488 416.693 53.464C417.941 52.44 418.565 50.968 418.565 49.048C418.565 47.096 417.941 45.624 416.693 44.632C415.477 43.64 413.669 43.144 411.269 43.144H402.773V55ZM446.231 73.432C442.775 73.432 439.831 72.728 437.399 71.32C434.967 69.912 433.095 67.912 431.783 65.32C430.503 62.696 429.863 59.608 429.863 56.056C429.863 52.504 430.503 49.432 431.783 46.84C433.095 44.248 434.967 42.248 437.399 40.84C439.831 39.432 442.775 38.728 446.231 38.728C448.631 38.728 450.775 39.08 452.663 39.784C454.551 40.488 456.199 41.512 457.607 42.856L455.879 46.84C454.343 45.528 452.839 44.584 451.367 44.008C449.927 43.432 448.247 43.144 446.327 43.144C442.679 43.144 439.895 44.264 437.975 46.504C436.055 48.744 435.095 51.928 435.095 56.056C435.095 60.184 436.055 63.384 437.975 65.656C439.895 67.896 442.679 69.016 446.327 69.016C448.247 69.016 449.927 68.728 451.367 68.152C452.839 67.576 454.343 66.616 455.879 65.272L457.607 69.256C456.199 70.6 454.551 71.64 452.663 72.376C450.775 73.08 448.631 73.432 446.231 73.432ZM463.875 73V39.16H468.867V53.752H487.875V39.16H492.867V73H487.875V57.928H468.867V73H463.875Z" fill="black"/>
<line x1="441" y1="5.5" x2="554" y2="5.5" stroke="#D4A017" stroke-width="10"/>
<line x1="549" y1="81" x2="549" y2="1" stroke="#D4A017" stroke-width="10"/>
<line x1="113.5" y1="106.5" x2="0.5" y2="106.5" stroke="#D4A017" stroke-width="10"/>
<line x1="5" y1="30" x2="5" y2="110" stroke="#D4A017" stroke-width="10"/>
</svg>
