<svg width="200" height="200" viewBox="0 0 200 200" fill="none" xmlns="http://www.w3.org/2000/svg">
<g clip-path="url(#clip0_274_94)">
<rect width="200" height="200" fill="#F5F5F5"/>
<rect x="2.49219" y="38.9434" width="17.2222" height="217.222" transform="rotate(-90 2.49219 38.9434)" fill="#F5F5F5" stroke="black" stroke-width="5"/>
<line x1="41.9375" y1="41.4434" x2="41.9375" y2="19.2211" stroke="black" stroke-width="5"/>
<line x1="86.3828" y1="41.4434" x2="86.3828" y2="19.2211" stroke="black" stroke-width="5"/>
<line x1="130.828" y1="41.4434" x2="130.828" y2="19.2211" stroke="black" stroke-width="5"/>
<line x1="175.273" y1="41.4434" x2="175.273" y2="19.2211" stroke="black" stroke-width="5"/>
<rect x="2.49219" y="73.3887" width="17.2222" height="217.222" transform="rotate(-90 2.49219 73.3887)" fill="#F5F5F5" stroke="black" stroke-width="5"/>
<line x1="41.9375" y1="75.8887" x2="41.9375" y2="53.6665" stroke="black" stroke-width="5"/>
<line x1="86.3828" y1="75.8887" x2="86.3828" y2="53.6665" stroke="black" stroke-width="5"/>
<line x1="130.828" y1="75.8887" x2="130.828" y2="53.6665" stroke="black" stroke-width="5"/>
<line x1="175.273" y1="75.8887" x2="175.273" y2="53.6665" stroke="black" stroke-width="5"/>
<rect x="2.49219" y="107.832" width="17.2222" height="217.222" transform="rotate(-90 2.49219 107.832)" fill="#F5F5F5" stroke="black" stroke-width="5"/>
<line x1="41.9375" y1="110.332" x2="41.9375" y2="88.1098" stroke="black" stroke-width="5"/>
<line x1="86.3828" y1="110.332" x2="86.3828" y2="88.1098" stroke="black" stroke-width="5"/>
<line x1="130.828" y1="110.332" x2="130.828" y2="88.1098" stroke="black" stroke-width="5"/>
<line x1="175.273" y1="110.332" x2="175.273" y2="88.1098" stroke="black" stroke-width="5"/>
<rect x="2.49219" y="142.277" width="17.2222" height="217.222" transform="rotate(-90 2.49219 142.277)" fill="#F5F5F5" stroke="black" stroke-width="5"/>
<line x1="41.9375" y1="144.777" x2="41.9375" y2="122.555" stroke="black" stroke-width="5"/>
<line x1="86.3828" y1="144.777" x2="86.3828" y2="122.555" stroke="black" stroke-width="5"/>
<line x1="130.828" y1="144.777" x2="130.828" y2="122.555" stroke="black" stroke-width="5"/>
<line x1="175.273" y1="144.777" x2="175.273" y2="122.555" stroke="black" stroke-width="5"/>
<rect x="-19.7344" y="159.498" width="17.2222" height="217.222" transform="rotate(-90 -19.7344 159.498)" fill="#F5F5F5" stroke="black" stroke-width="5"/>
<line x1="19.7109" y1="161.998" x2="19.7109" y2="139.776" stroke="black" stroke-width="5"/>
<line x1="64.1562" y1="161.998" x2="64.1562" y2="139.776" stroke="black" stroke-width="5"/>
<line x1="108.602" y1="161.998" x2="108.602" y2="139.776" stroke="black" stroke-width="5"/>
<line x1="153.047" y1="161.998" x2="153.047" y2="139.776" stroke="black" stroke-width="5"/>
<line x1="41.9375" y1="179.777" x2="41.9375" y2="157.555" stroke="black" stroke-width="5"/>
<line x1="86.3828" y1="179.777" x2="86.3828" y2="157.555" stroke="black" stroke-width="5"/>
<line x1="130.828" y1="179.777" x2="130.828" y2="157.555" stroke="black" stroke-width="5"/>
<line x1="175.273" y1="179.777" x2="175.273" y2="157.555" stroke="black" stroke-width="5"/>
<rect x="-19.7344" y="194.498" width="17.2222" height="217.222" transform="rotate(-90 -19.7344 194.498)" fill="#F5F5F5" stroke="black" stroke-width="5"/>
<line x1="19.7109" y1="196.998" x2="19.7109" y2="174.776" stroke="black" stroke-width="5"/>
<line x1="64.1562" y1="196.998" x2="64.1562" y2="174.776" stroke="black" stroke-width="5"/>
<line x1="108.602" y1="196.998" x2="108.602" y2="174.776" stroke="black" stroke-width="5"/>
<line x1="153.047" y1="196.998" x2="153.047" y2="174.776" stroke="black" stroke-width="5"/>
<rect x="-19.7344" y="21.7207" width="17.2222" height="217.222" transform="rotate(-90 -19.7344 21.7207)" fill="#F5F5F5" stroke="black" stroke-width="5"/>
<line x1="19.7109" y1="24.2207" x2="19.7109" y2="1.99848" stroke="black" stroke-width="5"/>
<line x1="64.1562" y1="24.2207" x2="64.1562" y2="1.99848" stroke="black" stroke-width="5"/>
<line x1="108.602" y1="24.2207" x2="108.602" y2="1.99848" stroke="black" stroke-width="5"/>
<line x1="153.047" y1="24.2207" x2="153.047" y2="1.99848" stroke="black" stroke-width="5"/>
<rect x="-19.7344" y="56.166" width="17.2222" height="217.222" transform="rotate(-90 -19.7344 56.166)" fill="#F5F5F5" stroke="black" stroke-width="5"/>
<line x1="19.7109" y1="58.666" x2="19.7109" y2="36.4438" stroke="black" stroke-width="5"/>
<line x1="64.1562" y1="58.666" x2="64.1562" y2="36.4438" stroke="black" stroke-width="5"/>
<line x1="108.602" y1="58.666" x2="108.602" y2="36.4438" stroke="black" stroke-width="5"/>
<line x1="153.047" y1="58.666" x2="153.047" y2="36.4438" stroke="black" stroke-width="5"/>
<rect x="-19.7344" y="90.6094" width="17.2222" height="217.222" transform="rotate(-90 -19.7344 90.6094)" fill="#F5F5F5" stroke="black" stroke-width="5"/>
<line x1="19.7109" y1="93.1094" x2="19.7109" y2="70.8872" stroke="black" stroke-width="5"/>
<line x1="64.1562" y1="93.1094" x2="64.1562" y2="70.8872" stroke="black" stroke-width="5"/>
<line x1="108.602" y1="93.1094" x2="108.602" y2="70.8872" stroke="black" stroke-width="5"/>
<line x1="153.047" y1="93.1094" x2="153.047" y2="70.8872" stroke="black" stroke-width="5"/>
<rect x="-19.7344" y="125.057" width="17.2222" height="217.222" transform="rotate(-90 -19.7344 125.057)" fill="#F5F5F5" stroke="black" stroke-width="5"/>
<line x1="19.7109" y1="127.557" x2="19.7109" y2="105.334" stroke="black" stroke-width="5"/>
<line x1="64.1562" y1="127.557" x2="64.1562" y2="105.334" stroke="black" stroke-width="5"/>
<line x1="108.602" y1="127.557" x2="108.602" y2="105.334" stroke="black" stroke-width="5"/>
<line x1="153.047" y1="127.557" x2="153.047" y2="105.334" stroke="black" stroke-width="5"/>
</g>
<rect x="2.5" y="2.5" width="195" height="195" stroke="black" stroke-width="5"/>
<defs>
<clipPath id="clip0_274_94">
<rect width="200" height="200" fill="white"/>
</clipPath>
</defs>
</svg>
